<?xml version="1.0" encoding="UTF-8" standalone="no"?>
<!-- Created with Inkscape (http://www.inkscape.org/) -->

<svg
   xmlns:dc="http://purl.org/dc/elements/1.1/"
   xmlns:cc="http://creativecommons.org/ns#"
   xmlns:rdf="http://www.w3.org/1999/02/22-rdf-syntax-ns#"
   xmlns:svg="http://www.w3.org/2000/svg"
   xmlns="http://www.w3.org/2000/svg"
   xmlns:sodipodi="http://sodipodi.sourceforge.net/DTD/sodipodi-0.dtd"
   xmlns:inkscape="http://www.inkscape.org/namespaces/inkscape"
   width="259.64444mm"
   height="345.72223mm"
   viewBox="0 0 259.64444 345.72223"
   version="1.1"
   id="svg8"
   inkscape:version="0.92.4 (5da689c313, 2019-01-14)"
   sodipodi:docname="cv.svg">
  <defs
     id="defs2" />
  <sodipodi:namedview
     id="base"
     pagecolor="#ffffff"
     bordercolor="#666666"
     borderopacity="1.0"
     inkscape:pageopacity="0.0"
     inkscape:pageshadow="2"
     inkscape:zoom="0.35"
     inkscape:cx="-118.062"
     inkscape:cy="760.74745"
     inkscape:document-units="mm"
     inkscape:current-layer="layer1"
     showgrid="false"
     inkscape:window-width="1366"
     inkscape:window-height="705"
     inkscape:window-x="294"
     inkscape:window-y="1072"
     inkscape:window-maximized="1" />
  <metadata
     id="metadata5">
    <rdf:RDF>
      <cc:Work
         rdf:about="">
        <dc:format>image/svg+xml</dc:format>
        <dc:type
           rdf:resource="http://purl.org/dc/dcmitype/StillImage" />
        <dc:title></dc:title>
      </cc:Work>
    </rdf:RDF>
  </metadata>
  <g
     inkscape:label="Layer 1"
     inkscape:groupmode="layer"
     id="layer1"
     transform="translate(38.351982,33.099209)">
    <path
       style="fill:#000000;stroke-width:0.35277778"
       d="m -18.499113,312.30821 c -6.3168,-0.23433 -6.8492,-0.30766 -8.64305,-1.19057 -3.91378,-1.92629 -7.40979,-5.40204 -10.35193,-10.29192 l -1.26106,-2.09591 0.0166,-154.53743 c 0.009,-84.995582 0.14267,-156.530019 0.29679,-158.965416 0.26586,-4.200984 0.34986,-4.560517 1.63859,-7.012964 2.32782,-4.42986 6.55856,-8.314671 10.90559,-10.013891 1.64844,-0.644359 3.07155,-0.717589 18.8924501,-0.972155 9.41034,-0.151417 50.3861999,-0.286973 91.0574599,-0.301234 l 73.947743,-0.02593 2.42864,1.219259 c 3.2558,1.634516 7.45262,5.461364 26.94604,24.5706333 15.23312,14.9329338 26.83697,26.7744067 29.72034,30.3289747 2.20617,2.719719 2.43186,3.640533 2.7595,11.25836 0.16281,3.785373 0.30348,64.501428 0.31259,134.924563 l 0.0166,128.04207 -1.5743,3.23616 c -1.84806,3.7989 -5.61005,8.06591 -8.8048,9.98676 l -1.98909,1.19594 -6.25132,0.29283 c -7.83478,0.36699 -210.9026729,0.69169 -220.063333,0.35187 z M 204.82112,297.38698 c 0.58287,-0.98672 0.698,-2.25449 0.93708,-10.31875 0.14991,-5.0566 0.28198,-62.87556 0.29349,-128.48658 l 0.0209,-119.292752 -25.66458,-0.160796 c -27.24125,-0.170674 -27.34995,-0.177616 -29.62256,-1.892519 -2.35359,-1.776017 -2.33601,-1.567233 -2.55157,-30.2945133 l -0.19323,-25.7527787 -84.490283,0.08543 c -46.46965,0.04698 -84.96653,0.216281 -85.54861,0.376213 -1.6787,0.461235 -1.92513,1.830206 -2.32702,12.9268302 -0.41693,11.5121586 -0.23175,299.9114958 0.19373,301.7065658 0.14637,0.61755 0.52749,1.23559 0.84693,1.37343 1.3558,0.58503 24.5880501,0.73462 123.18321,0.79321 l 104.257973,0.0619 z M 48.733727,255.12024 c -42.5202899,-0.19962 -39.3137299,0.0372 -41.2700399,-3.0476 -2.0446,-3.22401 -1.30262,-6.53731 2.2283,-9.9504 l 1.2206899,-1.17995 76.14872,0.17076 c 78.473063,0.17598 82.752823,0.25553 85.497333,1.58915 2.27869,1.10727 3.43905,5.05667 2.33504,7.94749 -0.31893,0.83511 -1.12094,2.0428 -1.78225,2.68376 -1.10592,1.07191 -1.4522,1.18857 -4.31716,1.45444 -4.00952,0.3721 -71.689573,0.55945 -120.060633,0.33235 z M 8.8039171,210.05288 c -1.76752,-1.84488 -2.40352,-3.28101 -2.40352,-5.42735 0,-2.3234 1.05632,-4.58482 2.74244,-5.87113 l 1.2590899,-0.96055 15.54993,-0.28661 c 19.15893,-0.35312 141.471723,-0.0107 144.104423,0.40343 2.55117,0.4013 4.34351,2.22913 4.98154,5.08017 0.67319,3.0081 0.26625,4.35691 -1.97098,6.53287 l -1.90423,1.85209 H 90.616987 10.071367 Z M 143.91522,168.53012 c -0.9108,-0.23481 -1.93104,-0.65215 -2.26719,-0.92743 -1.31991,-1.08088 -6.75298,-13.54774 -18.05208,-41.42273 -7.96562,-19.65129 -7.91727,-19.51735 -7.66427,-21.22795 0.2469,-1.66935 1.62945,-3.90658 3.14914,-5.095886 1.23073,-0.963175 4.42994,-1.307927 6.32706,-0.681821 2.77457,0.915687 3.63137,2.512977 10.98769,20.483787 6.57566,16.06374 9.37385,22.3398 9.7794,21.93424 0.18332,-0.18332 3.40598,-7.95999 7.16145,-17.28149 9.62062,-23.8794 9.83268,-24.28064 13.36721,-25.291526 2.19746,-0.628484 3.87996,-0.313524 5.93684,1.111356 3.26708,2.26324 3.39526,3.99249 0.85167,11.48924 -1.79492,5.29014 -13.48723,34.71525 -17.84098,44.89894 -3.86131,9.03185 -4.83679,10.79357 -6.37576,11.51458 -1.77023,0.82934 -3.46182,0.98609 -5.36018,0.49669 z m -69.609903,-0.33751 c -3.36455,-0.7659 -7.28739,-2.43038 -10.09905,-4.28508 -3.10635,-2.04908 -8.78744,-7.61966 -10.77324,-10.56368 -9.0028,-13.34696 -8.50659,-29.79431 1.29119,-42.79694 2.61472,-3.47 5.18258,-5.83914 9.26608,-8.54903 10.55701,-7.005828 22.4806,-7.047248 34.12854,-0.11856 5.933053,3.52924 8.429393,6.79983 7.994273,10.47375 -0.40635,3.43098 -2.75327,5.90407 -6.11265,6.44126 -1.874323,0.29971 -3.758113,-0.55373 -6.993123,-3.16821 -5.35261,-4.32589 -10.25746,-5.59635 -16.49935,-4.27366 -3.40416,0.72135 -6.38207,2.4272 -9.25342,5.30068 -4.34539,4.34859 -5.89514,8.54674 -5.92605,16.05321 -0.0307,7.45381 1.62556,12.16228 5.72262,16.26852 7.3322,7.34861 18.40125,7.55346 26.48537,0.49014 1.26118,-1.10192 2.69542,-2.21418 3.18719,-2.47167 2.69165,-1.40934 6.117073,-0.75753 8.213463,1.56292 3.09271,3.42327 2.49256,7.30909 -1.75026,11.3326 -3.725723,3.53314 -8.466023,6.18119 -13.883723,7.75581 -3.38829,0.98478 -11.73867,1.28986 -14.99786,0.54794 z M 198.28501,24.427411 c 0.38496,-0.243636 -1.63954,-2.452254 -8.64518,-9.431405 -9.95808,-9.9204217 -26.22482,-25.517437 -26.61314,-25.517437 -0.68341,0 -0.92452,14.6575645 -0.46622,28.341882 l 0.23229,6.935897 17.49479,-0.0054 c 9.77569,-0.0032 17.71658,-0.145771 17.99746,-0.323537 z"
       id="path826"
       inkscape:connector-curvature="0" />
  </g>
</svg>
