<?xml version="1.0" encoding="UTF-8" standalone="no"?>
<!-- Created with Inkscape (http://www.inkscape.org/) -->

<svg
   xmlns:dc="http://purl.org/dc/elements/1.1/"
   xmlns:cc="http://creativecommons.org/ns#"
   xmlns:rdf="http://www.w3.org/1999/02/22-rdf-syntax-ns#"
   xmlns:svg="http://www.w3.org/2000/svg"
   xmlns="http://www.w3.org/2000/svg"
   xmlns:sodipodi="http://sodipodi.sourceforge.net/DTD/sodipodi-0.dtd"
   xmlns:inkscape="http://www.inkscape.org/namespaces/inkscape"
   version="1.1"
   id="svg826"
   width="1300"
   height="1300"
   viewBox="0 0 1300 1300"
   sodipodi:docname="RR.svg"
   inkscape:version="0.92.4 (5da689c313, 2019-01-14)">
  <metadata
     id="metadata832">
    <rdf:RDF>
      <cc:Work
         rdf:about="">
        <dc:format>image/svg+xml</dc:format>
        <dc:type
           rdf:resource="http://purl.org/dc/dcmitype/StillImage" />
        <dc:title></dc:title>
      </cc:Work>
    </rdf:RDF>
  </metadata>
  <defs
     id="defs830" />
  <sodipodi:namedview
     pagecolor="#ffffff"
     bordercolor="#666666"
     borderopacity="1"
     objecttolerance="10"
     gridtolerance="10"
     guidetolerance="10"
     inkscape:pageopacity="0"
     inkscape:pageshadow="2"
     inkscape:window-width="1920"
     inkscape:window-height="1017"
     id="namedview828"
     showgrid="false"
     inkscape:zoom="0.41837151"
     inkscape:cx="603.57849"
     inkscape:cy="654.21922"
     inkscape:window-x="-8"
     inkscape:window-y="-8"
     inkscape:window-maximized="1"
     inkscape:current-layer="svg826" />
  <g
     id="g5141"
     transform="translate(-393.65979,129.77759)">
    <rect
       y="-129.77759"
       x="393.65979"
       height="1300"
       width="1300"
       id="rect5133"
       style="fill:#b3b3b3;fill-opacity:1;stroke:none;stroke-width:9.82004356;stroke-linecap:butt;stroke-linejoin:miter;stroke-miterlimit:10;stroke-dasharray:none;stroke-dashoffset:0;stroke-opacity:1;paint-order:normal" />
    <path
       inkscape:connector-curvature="0"
       id="path5083"
       d="m 821.68953,976.86534 c 0.016,-0.6875 3.4294,-3.5 7.5846,-6.25 11.2973,-7.4768 23.8525,-21.1104 29.5176,-32.05314 5.275,-10.189 9.0462,-21.1224 11.5368,-33.4469 1.5759,-7.7986 1.745,-22.7132 2.0491,-180.74996 0.2894,-150.36427 0.5174,-172.25 1.7946,-172.25 7.9752,0 66.6341,-9.0232 84.434,-12.98805 4.9678,-1.10657 9.7122,-2.01195 10.543,-2.01195 1.3057,0 1.5106,3.2666 1.5106,24.07426 v 24.07426 l 15.25,-0.81532 c 8.3875,-0.44842 17.72497,-0.81934 20.74997,-0.82426 l 5.5,-0.009 4.198,8 c 2.3089,4.4 7.8719,16.26723 12.3622,26.37162 8.4903,19.10527 8.6583,20.08669 3.4398,20.10463 -4.0789,0.014 -47.25517,2.1247 -54.29607,2.65426 l -7.2961,0.54877 0.3763,126.66036 c 0.3395,114.29185 0.5424,127.49038 2.0775,135.16038 6.6422,33.1861 18.9851,52.40354 44.88837,69.88964 2.6125,1.7635 4.75,3.6348 4.75,4.1584 0,0.5964 -37.54777,0.952 -100.49997,0.952 -79.7492,0 -100.4938,-0.258 -100.4703,-1.25 z m 441.97027,-1.1275 c 0,-0.7577 0.7447,-1.9952 1.6549,-2.75 6.6882,-5.5465 18.2907,-25.6632 22.7085,-39.37254 10.0987,-31.3379 7.6497,-71.35836 -7.8749,-128.68733 -19.1766,-70.815 -55.3007,-143.09786 -95.2885,-190.6681 l -2.8206,-3.35548 -7.5035,2.10548 c -11.0724,3.10691 -10.9902,3.13354 -14.3238,-4.64453 -1.5911,-3.7125 -7.3163,-15.63322 -12.7225,-26.49048 -5.4063,-10.85726 -9.8296,-20.44272 -9.8296,-21.30102 0,-0.85831 1.4625,-2.14336 3.25,-2.85567 1.7875,-0.71231 7.75,-3.03252 13.25,-5.15601 23.1944,-8.95508 50.2633,-24.74572 68.1374,-39.74792 34.0247,-28.55785 55.0579,-66.12777 61.4534,-109.7696 1.9851,-13.54597 1.492,-40.30598 -1.0017,-54.35999 -3.6756,-20.71504 -12.2531,-42.96738 -22.3837,-58.06931 -6.1496,-9.16731 -16.907,-21.53512 -23.524,-27.0456 -5.8896,-4.9047 -5.9564,-5.01961 -6.6569,-11.4544 -2.1927,-20.14056 -8.085,-43.36394 -15.946,-62.8485 -2.5182,-6.24168 -4.5785,-11.81686 -4.5785,-12.38929 0,-3.95856 40.4733,8.25007 63.5,19.15456 54.2998,25.71413 95.1573,78.66797 108.0837,140.08323 6.1182,29.06816 5.1126,64.99465 -2.673,95.5 -9.3998,36.82991 -29.1168,70.74784 -57.8749,99.55878 -18.0755,18.10865 -37.4136,33.09383 -58.1542,45.06396 -5.4916,3.16937 -8.5924,5.53612 -8.1632,6.23064 0.3807,0.61597 4.1002,5.17595 8.2655,10.13328 40.4668,48.16115 75.5201,111.83241 101.3971,184.17907 12.5083,34.97031 20.837,64.04366 31.1781,108.83427 8.3153,36.01616 20.3246,60.6235 39.4444,80.8222 4.3981,4.6463 7.9965,8.9496 7.9965,9.5628 0,0.8117 -24.346,1.115 -89.5,1.115 -75.3532,0 -89.5,-0.2177 -89.5,-1.3775 z M 644.65983,871.26206 c 0,-0.46931 3.2625,-3.01596 7.25,-5.65923 24.0332,-15.9313 37.0443,-37.10023 42.4018,-68.98749 1.7707,-10.53849 1.8482,-24.34179 1.8482,-329 0,-253.59931 -0.2599,-319.76598 -1.2832,-326.72009 -4.965,-33.73805 -17.6997,-55.634575 -41.9944,-72.206425 -3.9723,-2.70958 -7.2224,-5.31418 -7.2224,-5.78798 0,-0.48001 75.1657,-0.69922 169.75,-0.49507 151.322,0.32663 171.1613,0.54774 182.75,2.03677 71.44367,9.17974 114.18767,27.3415 151.00947,64.163325 31.534,31.53398 51.8878,72.06925 57.926,115.36132 1.8106,12.98108 2.0552,38.73842 0.5029,52.93756 -7.0916,64.86479 -44.7204,123.72012 -105.0241,164.26819 -10.7017,7.19585 -31.2852,19.07448 -37.4343,21.6032 -2.4598,1.01156 -4.4741,2.19025 -4.4761,2.61931 0,0.42906 2.5143,3.74836 5.5918,7.37623 12.1507,14.32317 29.2791,38.99282 41.8973,60.34366 35.4341,59.95693 65.283,140.33651 84.4818,227.5 5.8792,26.69177 13.4786,46.41267 24.1485,62.66749 5.2017,7.92435 17.2166,22.16999 20.5287,24.34017 1.2914,0.84615 2.348,2.20307 2.348,3.01539 0,1.29154 -11.173,1.47695 -89,1.47695 -94.8627,0 -92.1511,0.14341 -86.8813,-4.59501 6.0773,-5.46457 16.4795,-23.53964 20.6632,-35.90499 5.3676,-15.86459 6.7219,-25.73472 6.6543,-48.5 -0.069,-23.25169 -1.6026,-35.39856 -8.39,-66.45272 -15.9882,-73.14975 -49.763,-148.9049 -87.85177,-197.04728 -3.046,-3.85 -5.6823,-7.18398 -5.8585,-7.40885 -0.1761,-0.22487 -7.4113,1.21322 -16.0781,3.19575 -50.6339,11.58253 -97.2229,17.27888 -158.0436,19.32368 l -20.2858,0.68201 0.3547,127.60371 c 0.321,115.44814 0.5175,128.41341 2.0626,136.1037 3.3965,16.90391 8.7047,30.27369 16.699,42.05942 4.6877,6.91093 17.7392,19.29175 25.8374,24.50978 3.3552,2.16194 6.1044,4.4933 6.1092,5.1808 0.01,0.99177 -20.7533,1.25 -100.4913,1.25 -55.275,0 -100.5,-0.38398 -100.5,-0.85328 z m 178.5,-392.14892 c 22.4964,-1.30063 35.336,-2.56332 56.8901,-5.59476 135.47967,-19.0543 214.81407,-81.01004 227.57757,-177.7254 0.5678,-4.3023 1.0241,-14.6523 1.014,-23 -0.097,-80.12841 -46.5257,-136.11359 -125.37087,-151.17478 -24.0623,-4.59644 -26.9701,-4.73487 -109.3608,-5.20629 l -79.25,-0.45345 V 298.0369 480.11534 l 5.75,-0.01 c 3.1625,-0.005 13.4,-0.45196 22.75,-0.99253 z m 49.4972,-124.20249 c 0,-65.26385 -0.372,-101.3197 -1.1014,-107.29531 -4.0581,-33.2466 -17.1828,-56.18448 -41.7539,-72.97321 -3.928,-2.6839 -7.1419,-5.25038 -7.1419,-5.7033 0,-0.45292 49.062,-0.82349 109.0266,-0.82349 H 1040.713 l 11.3009,11.25 c 6.2156,6.1875 12.9858,13.84991 15.0452,17.02758 4.5013,6.94578 11.1911,20.16015 12.136,23.97242 l 0.6815,2.75 h -54.6084 -54.60837 v 102.89301 c 0,97.06739 -0.099,102.93155 -1.75,103.57364 -21.5311,8.37413 -50.5759,16.05059 -77.75,20.54915 -6.6,1.0926 -13.4625,2.23141 -15.25,2.53069 l -3.25,0.54414 v -98.29532 z"
       style="fill:#000000" />
  </g>
</svg>
